<svg xmlns="http://www.w3.org/2000/svg" viewBox="0 0 141.01 289.13"><defs><style>.cls-1{fill:none;stroke:#000;stroke-miterlimit:10;stroke-width:8px;}</style></defs><g id="Layer_2" data-name="Layer 2"><g id="Layer_1-2" data-name="Layer 1"><path class="cls-1" d="M136,77a43,43,0,0,0-18.73-35.5A18,18,0,0,0,90.41,18.23a36.5,36.5,0,0,0-64.3,31.22A27,27,0,0,0,31,103c.34,0,.67,0,1,0v54h78V116.5A43,43,0,0,0,136,77Z"/><line class="cls-1" x1="47.26" y1="103.89" x2="47.26" y2="147.47"/><line class="cls-1" x1="62.92" y1="118.53" x2="62.92" y2="147.13"/><circle class="cls-1" cx="70" cy="173.51" r="16.34"/><path class="cls-1" d="M29.4,171.94,10.16,233.29c-4.94,16.2,6.38,33.24,23.3,34.1.46,0,.92,0,1.38,0a26.63,26.63,0,0,0,6.36-.77c6.57,11.19,17.25,18.47,29.3,18.47,12.61,0,23.71-8,30.18-20a26.93,26.93,0,0,0,10.93,2.32c.47,0,.93,0,1.38,0,17.42-.88,28.55-19.06,22.22-35.31l-23.43-60.14"/><path class="cls-1" d="M52.16,192.53l-14.68-6.38S31.61,203,45.65,207,67,202.74,67,202.74"/><path class="cls-1" d="M88.16,192.56l14.38-6.39s5.76,16.85-8,20.81-20.89-4.21-20.89-4.21"/></g></g></svg>