<?xml version="1.0" encoding="UTF-8"?>
<svg width="128pt" height="128pt" version="1.1" viewBox="0 0 128 128" xmlns="http://www.w3.org/2000/svg">
 <g>
  <path d="m20.379 33.445c-4.1875 0-7.5781 5.6055-7.5781 12.52 0 5.8359 2.5234 10.957 5.9766 12.211l0.28125 0.10156v0.30859l-1.1367 32.68c-0.039063 0.98438 0.30859 1.9453 0.91016 2.5859 0.89453 0.91016 2.2148 0.91016 3.0977 0 0.62891-0.64062 0.96094-1.5742 0.92187-2.5859l-1.1641-32.984 0.30859-0.10156c3.457-1.2539 5.9766-6.3867 5.9766-12.211-0.003906-6.9141-3.4102-12.523-7.5938-12.523z"/>
  <path d="m114.14 33.445h-0.050781c-0.58984 0-1.0625 0.58984-1.0625 1.293v12.082c0 1.0117-0.74219 1.8438-1.625 1.8438-0.91016 0-1.6523-0.84375-1.6523-1.8438v-12.082c0-0.70312-0.47266-1.293-1.0352-1.293-0.58984 0-1.0625 0.58984-1.0625 1.293v12.082c0 1.0117-0.71875 1.8438-1.625 1.8438-0.91016 0-1.6523-0.84375-1.6523-1.8438v-12.082c0-0.70312-0.47266-1.293-1.0352-1.293-0.64063 0-1.1133 0.58984-1.1133 1.293v16.012c0 0.80469 0.32031 1.5469 0.87109 2.0234l4.3516 3.6602v0.20312l-1.1797 34.629c-0.050781 0.98438 0.28125 1.9453 0.91016 2.5859 0.89453 0.91016 2.2031 0.91016 3.0977 0 0.60156-0.64062 0.94531-1.6016 0.91016-2.5859l-1.2305-34.832 4.3633-3.6602c0.53906-0.47266 0.87109-1.2305 0.87109-2.0234v-16.012c0.011719-0.70312-0.46094-1.293-1.0508-1.293z"/>
  <path d="m64.844 29.824c-18.84 0-34.176 15.32-34.176 34.164 0 18.855 15.348 34.176 34.176 34.176 18.84 0 34.164-15.32 34.164-34.176-0.011718-18.828-15.336-34.164-34.164-34.164zm0 59.941c-14.223 0-25.777-11.559-25.777-25.777 0-14.223 11.559-25.777 25.777-25.777 14.223 0 25.777 11.559 25.777 25.777-0.011719 14.219-11.566 25.777-25.777 25.777z"/>
  <path d="m73.395 61.504c-0.52344-1.5117-1.4453-2.8555-2.6758-3.9023-1.625-1.4062-3.7266-2.1875-5.875-2.1875-0.050781 0-0.10156 0.011719-0.15234 0.011719-1.3555 1.0742-3.1758 1.7656-5.1719 1.9727 0.37109 0.30859 0.71875 0.64062 1.0625 1.0234 1.2539-0.89453 2.6992-1.3828 4.25-1.3828 3.2891 0 6.0664 2.1523 7.0547 5.1055 0.53906-0.11328 1.0898-0.17969 1.6523-0.20312-0.066406-0.12891-0.09375-0.29688-0.14453-0.4375z"/>
  <path d="m76.453 60.902c-0.76953 0-1.5234 0.23047-2.1641 0.64062 0.039063 0.14062 0.089844 0.26953 0.11328 0.42188 1.1406 0.050781 2.2656 0.28125 3.3164 0.74219 1.0742 0.44922 2.0352 1.0742 2.8398 1.8164-0.27734-2.0469-2.0039-3.6211-4.1055-3.6211z"/>
  <path d="m74.547 70.273c-0.42188-0.16797-0.89453-0.15234-1.3047 0.011718-0.33203 0.53906-0.71875 1.0352-1.1406 1.5117-0.30859 0.82031 0.10156 1.7656 0.92188 2.0977 0.42187 0.16797 0.87109 0.16797 1.293 0s0.75391-0.48828 0.92188-0.91016c0.050781-0.10156 0.11328-0.16797 0.21875-0.21875-0.039062-0.089844-0.050781-0.17969 0-0.26953 0.35547-0.85547-0.066406-1.8516-0.91016-2.2227z"/>
  <path d="m73.777 69.312c0.37109-0.011719 0.74219 0.050781 1.0898 0.17969 1.2812 0.53906 1.8828 2.0352 1.3555 3.3164-0.039062 0.10156-0.11328 0.16797-0.20312 0.21875 0.011719 0.089844 0.039063 0.17969-0.011719 0.28125-0.25781 0.62891-0.75391 1.1133-1.3828 1.3828-0.32031 0.11328-0.64062 0.17969-0.96094 0.17969-0.33203 0-0.67969-0.0625-0.97266-0.20312-0.85938-0.35938-1.4062-1.1406-1.5117-2.0234-0.44922 0.37109-0.92188 0.70312-1.4062 0.98438 0.37109 1.125 1.2148 2.0625 2.3047 2.5234 2.0977 0.89453 4.5586-0.10156 5.4258-2.2148 0.050782-0.10156 0.11328-0.16797 0.21875-0.21875-0.039062-0.089844-0.050781-0.17969 0-0.28125 0.42188-1.0234 0.42188-2.1523 0-3.1758-0.42188-1.0352-1.2148-1.832-2.2383-2.2656-0.35938-0.15234-0.71875-0.23047-1.1133-0.26953-0.14453 0.5625-0.36328 1.0859-0.59375 1.5859z"/>
  <path d="m73.676 77.352c-0.65234 0-1.293-0.14062-1.9336-0.41016-1.2812-0.53906-2.2383-1.6133-2.7266-2.9062-0.48828 0.21875-0.98438 0.42188-1.5234 0.55078 0.64062 1.7266 1.9219 3.125 3.6367 3.8516 1.625 0.69141 3.4297 0.69141 5.0703 0.011719 1.625-0.67969 2.9062-1.9336 3.5859-3.5586 0.050782-0.10156 0.11328-0.16797 0.21875-0.20312-0.039062-0.10156-0.039062-0.20312 0-0.28125 0.69141-1.625 0.69141-3.4297 0.011719-5.0703-0.67969-1.625-1.9336-2.9062-3.5586-3.5977-0.55078-0.23047-1.125-0.35938-1.7031-0.43359-0.011718 0.55078-0.089844 1.0898-0.17969 1.6133 0.43359 0.0625 0.87109 0.15234 1.2539 0.32031 1.2305 0.52344 2.1641 1.4844 2.6875 2.7266 0.5 1.2305 0.48828 2.5859-0.011719 3.8125-0.050781 0.10156-0.11328 0.16797-0.21875 0.20312 0.039063 0.10156 0.050782 0.20312 0 0.30859-0.79297 1.8984-2.6641 3.0625-4.6094 3.0625z"/>
  <path d="m77.391 63.477c-1.0352-0.44922-2.1641-0.69141-3.3164-0.70312-0.69141 0-1.3047 0.0625-1.9453 0.20312 0.10156 0.5 0.16797 1.0117 0.16797 1.5469 0 0.039062-0.039063 0.050781-0.039063 0.0625 1.5117-0.33203 3.0586-0.21875 4.5039 0.38281 1.832 0.76953 3.2656 2.2148 4.0195 4.043 0.75391 1.8438 0.75391 3.8789-0.011719 5.707-0.039062 0.10156-0.11328 0.16797-0.21875 0.20312 0.039063 0.10156 0.050781 0.20312 0 0.30859-0.75391 1.832-2.1875 3.2383-4.0312 3.9922-0.92188 0.38281-1.8828 0.57422-2.8398 0.57422-0.97266 0-1.9727-0.20312-2.8945-0.58984-1.9453-0.82031-3.4062-2.418-4.1211-4.4141-0.53906 0.10156-1.0898 0.16797-1.6641 0.16797 0.79297 2.5859 2.6758 4.7109 5.1602 5.7461 2.2383 0.94531 4.7109 0.96094 6.9375 0.039063 2.2539-0.92188 4.0195-2.6484 4.9531-4.8906 0.039063-0.10156 0.11328-0.16797 0.20312-0.21875-0.039062-0.089844-0.039062-0.17969 0-0.28125 1.9453-4.6094-0.24609-9.9492-4.8633-11.879z"/>
  <path d="m59.02 82.113c-4.0312 0-7.3203-3.2656-7.4258-7.2695-0.60156-0.10156-1.1914-0.25781-1.7656-0.44922 0.0625 0.0625 0.11328 0.16797 0.11328 0.26953 0 5.0039 4.0703 9.0742 9.0742 9.0742 3.1367 0 6.0547-1.6523 7.7188-4.3125-0.41016-0.41016-0.79297-0.84375-1.125-1.3047-1.2773 2.418-3.7617 3.9922-6.5898 3.9922z"/>
  <path d="m53.234 74.98c-0.26953 0-0.52344-0.011719-0.76953-0.039063 0.15234 3.4961 3.0195 6.3242 6.5664 6.3242 2.6758 0 5.0312-1.5742 6.0664-3.9922-0.42188-0.74219-0.74219-1.5117-0.97266-2.3281h-0.125c-0.15234 2.625-2.3164 4.7109-4.9805 4.7109-2.6484 0-4.8242-2.0977-4.9531-4.7227-0.28125-0.003906-0.55078 0.046875-0.83203 0.046875z"/>
  <path d="m54.887 74.84c0.11328 2.1875 1.9219 3.9414 4.1328 3.9414 2.2383 0 4.043-1.7656 4.1328-3.9688-0.58984-0.10156-1.1641-0.26953-1.7148-0.47266 0.0625 0.089844 0.11328 0.16797 0.11328 0.28125 0 1.3945-1.1406 2.5234-2.5352 2.5234s-2.5234-1.125-2.5234-2.5234c0-0.10156 0.039062-0.20312 0.10156-0.26953-0.54297 0.22266-1.1172 0.40234-1.707 0.48828z"/>
  <path d="m59.02 76.328c0.94531 0 1.7031-0.75391 1.7031-1.6758 0-0.21875 0.16797-0.38281 0.38281-0.41016-0.75391-0.30859-1.4453-0.70313-2.0859-1.1641-0.65234 0.47266-1.3438 0.85938-2.0859 1.1406 0.21875 0.011719 0.41016 0.20312 0.41016 0.42188 0 0.92969 0.75391 1.6875 1.6758 1.6875z"/>
  <path d="m64.844 66.754c0.92188 0 1.6758-0.75391 1.6758-1.7031 0-0.10156 0.050781-0.20312 0.11328-0.26953-0.0625-0.089844-0.10156-0.16797-0.10156-0.26953 0-0.94531-0.76953-1.7031-1.7031-1.7031-0.94531 0-1.7031 0.75391-1.7031 1.7031 0 0.039062-0.039062 0.0625-0.039062 0.10156 0 0.14062 0.039062 0.28125 0.039062 0.42188v0.011719c0.015625 0.94922 0.77344 1.707 1.7188 1.707z"/>
  <path d="m51.531 65.051c0 0.94531 0.75391 1.7031 1.7031 1.7031 0.92188 0 1.6758-0.75391 1.6758-1.7031 0-0.92188-0.75391-1.7031-1.6758-1.7031-0.94531 0-1.7031 0.78125-1.7031 1.7031z"/>
  <path d="m64.844 72.512c-4.1211 0-7.4609-3.3398-7.4609-7.4609 0-2.293-1.8672-4.1484-4.1484-4.1484-2.3047 0-4.1484 1.8672-4.1484 4.1484h-0.011719c0.011719 2.3047 1.8828 4.1719 4.1719 4.1719 0.82031 0 1.6133-0.26953 2.3164-0.74219-0.21875-0.53906-0.37109-1.125-0.47266-1.7148-0.47266 0.5-1.125 0.82031-1.8438 0.82031-1.3945 0-2.5352-1.1406-2.5352-2.5352s1.1406-2.5352 2.5352-2.5352c1.3945 0 2.5234 1.1406 2.5234 2.5352 0 5.0039 4.082 9.0898 9.0898 9.0898 4.9414 0 8.9727-3.9805 9.0742-8.8828-0.55078 0-1.1133 0.050782-1.6641 0.17969-0.21875 3.9258-3.4453 7.0742-7.4258 7.0742z"/>
  <path d="m64.844 70.043c-2.7539 0-4.9922-2.2383-4.9922-4.9922 0-3.6484-2.9688-6.6172-6.6172-6.6172-1.832 0-3.4805 0.74219-4.6719 1.9453-1.2148 1.1914-1.9453 2.8555-1.9453 4.6719 0 3.6602 2.9688 6.6172 6.6172 6.6172 1.2422 0 2.418-0.35938 3.4414-0.98438-0.30859-0.44922-0.57422-0.92188-0.80469-1.4062-0.79297 0.5-1.7031 0.79297-2.6367 0.79297-2.7539 0-5.0039-2.2539-5.0039-5.0039h0.011719c0-2.7539 2.2383-4.9922 4.9922-4.9922s4.9922 2.2383 4.9922 4.9922c0 3.6484 2.9688 6.6172 6.6172 6.6172s6.6172-2.9688 6.6172-6.6172c0-0.10156 0.050781-0.20312 0.11328-0.26953-0.0625-0.089844-0.11328-0.16797-0.11328-0.26953 0-3.6484-2.9688-6.6172-6.6445-6.6172-1.3438 0-2.625 0.42188-3.7266 1.1914 0.33203 0.43359 0.64062 0.89453 0.89453 1.3555 0.82031-0.58984 1.793-0.92188 2.8398-0.92188 2.7773 0 5.0039 2.2383 5.0039 4.9922 0 0.10156-0.050781 0.20312-0.11328 0.26953 0.0625 0.0625 0.11328 0.16797 0.11328 0.26953 0.007813 2.7344-2.2305 4.9766-4.9844 4.9766z"/>
  <path d="m58.344 72.523c-0.42188-0.35938-0.80469-0.75391-1.1641-1.1758-1.1758 0.75391-2.5234 1.1641-3.957 1.1641-2.0625 0-3.918-0.84375-5.2734-2.1875-1.3438-1.3438-2.1875-3.2266-2.1875-5.2734 0-4.1211 3.3398-7.4609 7.4609-7.4609 4.0977 0 7.4609 3.3398 7.4609 7.4609 0 2.293 1.8438 4.1484 4.1484 4.1484 2.293 0 4.1484-1.8672 4.1484-4.1484 0-0.10156 0.050781-0.20312 0.11328-0.26953-0.0625-0.089844-0.11328-0.16797-0.11328-0.26953 0-2.293-1.8672-4.1484-4.1719-4.1484-0.91016 0-1.7773 0.32031-2.4844 0.85938 0.23047 0.55078 0.42188 1.125 0.53906 1.7031 0.47266-0.57422 1.1758-0.94531 1.9727-0.94531 1.3945 0 2.5352 1.1406 2.5352 2.5352 0 0.10156-0.050782 0.20312-0.11328 0.26953 0.0625 0.0625 0.10156 0.16797 0.10156 0.26953 0 1.3945-1.125 2.5352-2.5234 2.5352-1.3945 0-2.5234-1.125-2.5352-2.5078v-0.039062c0-2.1367-0.75391-4.1992-2.1133-5.8125-0.53906-0.64062-1.1133-1.1758-1.7539-1.6016-0.0625-0.0625-0.14062-0.11328-0.21875-0.15234-1.9961-0.039062-3.8125-0.60156-5.2734-1.5117-4.8516 0.15234-8.793 4.1992-8.793 9.0742 0 0.011719-0.011719 0.011719-0.011719 0.011719 0.011719 5.0039 4.082 9.0742 9.0898 9.0742 1.8633 0.011719 3.5938-0.55078 5.1172-1.6016z"/>
  <path d="m74.328 55.09c2.918 0 5.3008-2.3672 5.3008-5.2734s-2.3672-5.2734-5.3008-5.2734c-2.9062 0-5.2734 2.3672-5.2734 5.2734s2.3711 5.2734 5.2734 5.2734zm-1.6641-3.0078-0.64062 0.64062c-0.089844 0.089844-0.17969 0.11328-0.30859 0.11328-0.10156 0-0.20312-0.039063-0.28125-0.11328-0.16797-0.16797-0.16797-0.43359 0-0.60156l0.62891-0.62891c0.16797-0.16797 0.43359-0.16797 0.60156 0 0.15625 0.16797 0.15625 0.4375 0 0.58984zm5.7734-2.2773c0 0.23047-0.17969 0.42187-0.42188 0.42187h-0.89453c-0.21875 0-0.42188-0.17969-0.42188-0.42187 0-0.23047 0.20312-0.42188 0.42188-0.42188h0.89453c0.23047 0.011719 0.42188 0.19141 0.42188 0.42188zm-2.418-2.2656 0.64062-0.62891c0.15234-0.16797 0.42188-0.16797 0.58984 0 0.16797 0.15234 0.16797 0.42188 0 0.58984l-0.64062 0.62891c-0.0625 0.089844-0.17969 0.14062-0.28125 0.14062-0.11328 0-0.21875-0.050781-0.30859-0.14062-0.16797-0.15625-0.16797-0.42188 0-0.58984zm0 3.957c0.16797-0.16797 0.43359-0.16797 0.58984 0l0.64062 0.62891c0.16797 0.16797 0.16797 0.43359 0 0.60156-0.089844 0.089844-0.17969 0.11328-0.30859 0.11328-0.10156 0-0.21875-0.039063-0.28125-0.11328l-0.64062-0.64062c-0.16797-0.15625-0.16797-0.42578 0-0.58984zm-2.0977-5.3633c0-0.23047 0.20312-0.42187 0.42188-0.42187 0.23047 0 0.42188 0.17969 0.42188 0.42187v0.89453c0 0.23047-0.17969 0.42188-0.42188 0.42188-0.21875 0-0.42188-0.17969-0.42188-0.42188zm0 6.4609c0-0.23047 0.20312-0.42188 0.42188-0.42188 0.23047 0 0.42188 0.17969 0.42188 0.42188v0.89453c0 0.23047-0.17969 0.42188-0.42188 0.42188-0.21875 0-0.42188-0.17969-0.42188-0.42188zm-2.4727-5.668c0.15234-0.16797 0.42188-0.16797 0.58984 0l0.64063 0.62891c0.15234 0.16797 0.15234 0.43359 0 0.58984-0.089844 0.089844-0.20313 0.14062-0.30859 0.14062-0.11328 0-0.21875-0.050781-0.30859-0.14062l-0.62891-0.62891c-0.16406-0.17969-0.16406-0.44922 0.015625-0.58984zm-1.2148 2.8789c0-0.23047 0.17969-0.42188 0.42188-0.42188h0.89453c0.23047 0 0.42188 0.17969 0.42188 0.42188 0 0.23047-0.17969 0.42187-0.42188 0.42187h-0.89453c-0.24219 0-0.42188-0.17969-0.42188-0.42187z"/>
  <path d="m58.406 56.652c4.4141 0 8.0391-2.7383 8.0391-6.1172s-3.6094-6.1328-8.0391-6.1328-8.0391 2.7539-8.0391 6.1328 3.625 6.1172 8.0391 6.1172zm0-10.84c2.5977 0 4.7109 2.1133 4.7109 4.7227 0 2.5977-2.0977 4.7109-4.7109 4.7109-2.5977 0-4.7227-2.0977-4.7227-4.7109 0-2.6133 2.1133-4.7227 4.7227-4.7227z"/>
 </g>
</svg>
