<?xml version="1.0" encoding="UTF-8"?>
<svg width="18pt" height="18pt" version="1.1" viewBox="0 0 100 100" xmlns="http://www.w3.org/2000/svg">
 <g fill-rule="evenodd">
  <path d="m14.09 65.883c0.058594 1.668 0.77344 3.4102 2.1484 4.7812 1.3711 1.375 3.1094 2.0898 4.7812 2.1484 1.1445 0.042969 2.4414 0.23047 3.5742 0.92578 5.2539 3.2266 11.438 5.0859 18.059 5.0859 6.6289 0 12.816-1.8633 18.074-5.0938 2.4961-1.5352 4.6211-1.75 6.4531-1.1133 1.7539 0.60937 3.0625 1.957 4.0742 3.1328l13.613 15.809c1.1406 1.3242 3.1641 1.3984 4.3945 0.16406l0.86719-0.86328c1.2344-1.2344 1.1562-3.2578-0.16406-4.3945l-15.812-13.613c-1.1758-1.0117-2.5195-2.3203-3.1328-4.0781-0.63672-1.8281-0.41797-3.9531 1.1133-6.4492 3.2344-5.2578 5.0977-11.449 5.0977-18.074 0-6.6211-1.8633-12.805-5.0859-18.059-0.69531-1.1367-0.88672-2.4336-0.92578-3.5742-0.0625-1.6719-0.77734-3.4102-2.1523-4.7852-1.3711-1.3711-3.1094-2.0859-4.7812-2.1484-1.1406-0.039063-2.4414-0.23047-3.5742-0.92578-5.2539-3.2266-11.438-5.0859-18.059-5.0859-9.5469 0-18.191 3.8711-24.449 10.129-6.2578 6.2578-10.125 14.898-10.125 24.449 0 6.6211 1.8594 12.805 5.082 18.059 0.69531 1.1328 0.88672 2.4297 0.92969 3.5742zm58.125-43.301c-0.066406-1.9297-0.89062-3.9062-2.4375-5.457-1.5508-1.5469-3.5273-2.3711-5.457-2.4414-1.0742-0.035156-2.168-0.21484-3.0859-0.77734-5.4062-3.3203-11.77-5.2344-18.582-5.2344-9.8242 0-18.719 3.9844-25.156 10.422s-10.418 15.332-10.418 25.156c0 6.8086 1.9141 13.172 5.2305 18.582 0.5625 0.91797 0.74219 2.0117 0.78125 3.0859 0.070312 1.9258 0.89062 3.9062 2.4414 5.4531 1.5469 1.5508 3.5234 2.3711 5.4531 2.4414 1.0742 0.039062 2.168 0.21875 3.0859 0.78125 5.4062 3.3164 11.773 5.2305 18.582 5.2305 6.8164 0 13.188-1.918 18.598-5.2422 4.6016-2.8281 7.25-0.50391 9.2461 1.8203l13.613 15.809c1.5195 1.7656 4.2148 1.8633 5.8594 0.21875l0.86719-0.86328c1.6445-1.6445 1.543-4.3398-0.21875-5.8594l-15.812-13.613c-2.3203-2-4.6445-4.6445-1.8164-9.2461 3.3242-5.4141 5.2422-11.781 5.2422-18.598 0-6.8125-1.9141-13.176-5.2344-18.582-0.5625-0.91797-0.74219-2.0117-0.78125-3.0859zm8.4531 62.441c-0.625-0.78125-0.56641-1.9062 0.14453-2.6172 0.70703-0.70703 1.832-0.76953 2.6133-0.14453l4.9648 3.9766c1.2422 0.99219 1.3438 2.8438 0.21875 3.9688s-2.9766 1.0195-3.9688-0.21875zm0.85156-1.9102c-0.34766 0.34766-0.37891 0.90234-0.070312 1.2852l3.9727 4.9648c0.62109 0.77344 1.7773 0.83984 2.4805 0.13672s0.64062-1.8594-0.13672-2.4844l-4.9648-3.9727c-0.38281-0.30469-0.93359-0.27734-1.2812 0.070312z"/>
  <path d="m22.531 64.371c11.113 11.113 29.129 11.113 40.242 0 11.113-11.113 11.113-29.129 0-40.242-11.113-11.113-29.129-11.113-40.242 0-11.113 11.113-11.113 29.129 0 40.242zm-0.70703 0.70703c11.504 11.504 30.152 11.504 41.656 0 11.504-11.504 11.504-30.156 0-41.656-11.504-11.504-30.152-11.504-41.656 0-11.504 11.5-11.504 30.152 0 41.656z"/>
 </g>
</svg>
